<?xml version="1.0" standalone="no"?><!DOCTYPE svg PUBLIC "-//W3C//DTD SVG 1.1//EN" "http://www.w3.org/Graphics/SVG/1.1/DTD/svg11.dtd"><svg t="1566023890189" class="icon" viewBox="0 0 1088 1024" version="1.1" xmlns="http://www.w3.org/2000/svg" p-id="3276" xmlns:xlink="http://www.w3.org/1999/xlink" width="212.5" height="200"><defs><style type="text/css"></style></defs><path d="M966.783412 832.166167H119.89226c-64.012782 0-119.845017-55.832235-119.845017-119.845017V320.881965c0-15.952067 15.952067-31.904134 31.904134-31.904134s31.904134 7.976034 31.904134 31.904134v391.439185c0 31.904134 23.928101 55.832235 55.832235 55.832235h846.891152c31.904134 0 55.832235-23.928101 55.832235-55.832235v-591.044537c0-31.904134-23.928101-55.832235-55.832235-55.832235h-846.686638c-31.904134 0-55.832235 23.928101-55.832235 55.832235v31.904134c0 15.952067-15.952067 31.904134-31.904134 31.904134s-31.904134-7.976034-31.904135-23.9281V121.276613C0.251756 57.263831 56.083991 1.431596 120.096773 1.431596h846.891153c64.012782 0 119.845017 55.832235 119.845017 119.845017v591.249051c-0.204514 63.808268-56.241262 119.640503-120.049531 119.640503z m-103.89295 191.833833H223.78521c-15.952067 0-31.904134-15.952067-31.904135-31.904134s15.952067-31.904134 31.904135-31.904134h639.105252c15.952067 0 31.904134 15.952067 31.904134 31.904134s-15.952067 31.904134-31.904134 31.904134z m0 0" p-id="3277"></path><path d="M591.296294 664.464949c-7.976034 0-7.976034 0 0 0-15.952067 0-31.904134-15.952067-31.904134-31.904134l-39.880168-263.618135-55.832235 135.797084c-7.976034 15.952067-15.952067 23.928101-31.904134 23.928101s-23.928101-7.976034-31.904134-23.928101l-15.952067-79.964849-39.880168 39.880168c-7.976034 7.976034-15.952067 15.952067-23.928101 15.952067h-79.964849c-15.952067 0-31.904134-15.952067-31.904134-31.904134s15.952067-31.904134 31.904134-31.904134H303.750059l64.012782-63.808269c15.952067-15.952067 23.928101-15.952067 31.904134-15.952067 7.976034 0 15.952067 7.976034 23.928101 23.928101l15.952067 39.880167 71.988815-167.701218c7.976034-15.952067 15.952067-23.928101 31.904135-23.9281s23.928101 15.952067 23.9281 23.9281l31.904135 271.594168 47.856201-127.82105c7.976034-7.976034 15.952067-15.952067 31.904134-23.928101 15.952067 0 23.928101 7.976034 31.904134 15.952067l31.904134 64.012782 15.952068-23.9281c7.976034-7.976034 15.952067-15.952067 23.9281-15.952067h55.832235c15.952067 0 31.904134 15.952067 31.904134 31.904134s-7.976034 47.856201-23.9281 47.856201h-39.880168l-39.880168 55.832235c-7.976034 7.976034-15.952067 15.952067-31.904134 15.952067-7.976034 0-23.928101-7.976034-23.928101-15.952067l-23.9281-64.012782-71.988816 175.677252c0.204514 16.156581-15.747553 24.132614-23.723587 24.132614z m0 0" p-id="3278"></path></svg>