<?xml version="1.0" standalone="no"?><!DOCTYPE svg PUBLIC "-//W3C//DTD SVG 1.1//EN" "http://www.w3.org/Graphics/SVG/1.1/DTD/svg11.dtd"><svg t="1566024171779" class="icon" viewBox="0 0 1024 1024" version="1.1" xmlns="http://www.w3.org/2000/svg" p-id="5393" xmlns:xlink="http://www.w3.org/1999/xlink" width="200" height="200"><defs><style type="text/css"></style></defs><path d="M718.125 873.406c-64.79 36.314-136.452 54.988-209.090 54.988-39.264 0-79.518-5.888-117.801-16.675-110.932-31.413-202.208-104.067-258.182-204.187-115.837-207.154-41.218-469.25 165.923-585.098 176.716-98.17 401.535-58.908 534.060 93.266 11.79 13.74 10.796 34.356-2.921 47.124-13.74 11.79-34.356 10.796-47.124-2.921-111.913-128.599-302.366-161.989-451.591-78.538-174.749 98.17-238.547 320.042-140.39 494.789 47.124 84.422 124.675 146.276 217.937 172.788 93.266 26.505 191.425 14.73 276.852-32.402 149.2-83.442 220.874-262.126 169.834-426.052-5.888-17.668 3.922-36.314 21.587-41.218 17.668-5.888 36.314 3.922 41.218 21.587 60.859 192.405-23.562 404.466-200.292 502.644zM541.424 281.43c0-18.655-14.73-33.366-33.366-33.366s-33.366 14.73-33.366 33.366v265.063c0 18.655 14.73 33.366 33.366 33.366s33.366-14.73 33.366-33.366v-265.063zM509.009 619.14c-18.655 0-33.366 14.73-33.366 33.366v44.162c0 18.655 14.73 33.366 33.366 33.366s33.366-14.73 33.366-33.366v-44.162c-0.975-18.655-15.712-33.366-33.366-33.366z" p-id="5394"></path></svg>