<?xml version="1.0" standalone="no"?><!DOCTYPE svg PUBLIC "-//W3C//DTD SVG 1.1//EN" "http://www.w3.org/Graphics/SVG/1.1/DTD/svg11.dtd"><svg t="1566024153437" class="icon" viewBox="0 0 1024 1024" version="1.1" xmlns="http://www.w3.org/2000/svg" p-id="4648" xmlns:xlink="http://www.w3.org/1999/xlink" width="200" height="200"><defs><style type="text/css"></style></defs><path d="M513.751 133.829c-162.672-0.037-307.352 103.396-359.951 257.329l51.444 17.531C250.34 276.772 374.338 188.137 513.751 188.17c161.455 0 295.854 117.976 321.539 272.264l-46.832-31.246-30.104 45.233 93.436 62.303a27.13 27.13 0 0 0 27.92 1.402 27.126 27.126 0 0 0 14.34-23.999c-0.001-209.697-170.602-380.298-380.299-380.298z m0 706.257c-161.455 0-295.857-117.977-321.539-272.268l46.832 31.249 30.104-45.233-93.399-62.302a27.169 27.169 0 0 0-42.297 22.596c0 209.697 170.602 380.298 380.298 380.298 162.68 0.058 307.37-103.386 359.948-257.333l-51.44-17.526C777.155 751.476 653.157 840.096 513.75 840.05v0.036z m0 0" fill="#16b1af" p-id="4649"></path><path d="M480.844 417.607c-1.084 61.306-30.124 92.515-87.121 93.573-57.021-2.142-86.591-32.796-88.734-91.96 2.143-60.223 31.712-91.406 88.734-93.574 56.997 1.084 86.037 31.738 87.121 91.961z m-51.627 0c0-33.326-11.848-50.013-35.493-50.013-23.671-1.059-35.494 15.604-35.494 50.013 0 33.35 11.823 50.013 35.494 50.013 23.645 0 35.493-16.663 35.493-50.013z m17.747 287.174l196.827-380.748h-61.307L385.657 704.781h61.307z m275.881-95.188c-1.084 60.223-30.124 90.876-87.12 91.961-57.021-2.169-86.591-32.267-88.733-90.348 2.142-60.223 31.712-91.405 88.733-93.574 56.996 1.085 86.036 31.738 87.12 91.961z m-51.627 0c0-32.266-11.848-48.399-35.494-48.399-23.671-1.059-34.963 15.074-33.88 48.399 0 32.267 11.293 48.4 33.88 48.4 23.646 0.001 35.494-16.133 35.494-48.4z" fill="#16b1af" p-id="4650"></path></svg>