<?xml version="1.0" standalone="no"?><!DOCTYPE svg PUBLIC "-//W3C//DTD SVG 1.1//EN" "http://www.w3.org/Graphics/SVG/1.1/DTD/svg11.dtd"><svg t="1557298766555" class="icon" style="" viewBox="0 0 1024 1024" version="1.1" xmlns="http://www.w3.org/2000/svg" p-id="7507" xmlns:xlink="http://www.w3.org/1999/xlink" width="200" height="200"><defs><style type="text/css"></style></defs><path d="M512 131.072c209.92 0 380.928 171.008 380.928 380.928S721.92 892.928 512 892.928 131.072 721.92 131.072 512 302.08 131.072 512 131.072M512 72.704c-242.688 0-439.296 196.608-439.296 439.296s196.608 439.296 439.296 439.296c242.688 0 439.296-196.608 439.296-439.296S754.688 72.704 512 72.704L512 72.704z" p-id="7508"></path><path d="M512 573.44c-16.384 0-29.184-13.312-29.184-29.184L482.816 485.376c0-16.384 13.312-29.184 29.184-29.184 16.384 0 29.184 13.312 29.184 29.184l0 58.368C541.184 560.128 528.384 573.44 512 573.44z" p-id="7509"></path><path d="M511.488 277.504l71.68 144.384 159.744 22.528-115.2 112.64 27.648 158.72-142.848-74.752-142.336 75.264 26.624-158.72L281.088 445.952l159.232-23.552L511.488 277.504M511.488 219.136C511.488 219.136 511.488 219.136 511.488 219.136c-22.528 0-43.008 12.8-52.736 32.768L401.408 368.64l-129.024 18.944c-22.016 3.072-40.448 18.944-47.104 39.936-6.656 20.992-1.024 44.544 14.848 59.904L333.824 578.56 312.32 707.584c-3.584 22.016 5.632 44.032 23.552 57.344 10.24 7.168 22.016 11.264 34.304 11.264 9.216 0 18.944-2.048 27.648-6.656l115.2-60.928 115.712 60.416c8.704 4.608 17.92 6.656 27.136 6.656 12.288 0 24.576-3.584 34.816-11.264 17.92-13.312 27.136-35.328 23.04-57.344l-22.528-128.512L783.872 486.4c15.872-15.872 21.504-38.912 14.848-59.904-7.168-20.992-25.088-36.352-47.616-39.936l-129.024-18.432-57.856-116.736C553.984 231.424 533.504 219.136 511.488 219.136L511.488 219.136z" p-id="7510"></path></svg>